# xmcd CD database file
#
# Track frame offsets:
#	150
#	12637
#	25847
#	38806
#	48946
#	61209
#	82541
#	93585
#	106857
#	120439
#	131172
#	144253
#	153972
#	164506
#	175252
#
# Disc length: 2468 seconds
#
# Revision: 0
# Processed by: cddbd v1.5.2PL0 Copyright (c) Steve Scherf et al.
# Submitted via: CDex 1.51
#
DISCID=b509a20f
DTITLE=Various Artist - A Fine Romance Disk 2
DYEAR=2005
DGENRE=Blues
TTITLE0=A Fine Romance - Johnny Mercer
TTITLE1=Heart And Soul - Sue Raney
TTITLE2=They Can't Take That Away From Me - Wayne Newton
TTITLE3=You'd Be So Nice To Come Home To - Julie London
TTITLE4=Sway - Dean Martin
TTITLE5=Just a Gigolo - Louis Prima and Keely Smith
TTITLE6=Why Don't You Do Right - Peggy Lee
TTITLE7=Get Your Kicks on Route 66 - Nat King Cole
TTITLE8=On The Sunny Side Of The Street - Keely Smith
TTITLE9=It's A Most Unusual Day - June Christy
TTITLE10=Glow Worm - Johnny Mercer and The Blue Rays
TTITLE11=They All Laughed - Dakota Staton
TTITLE12=Have You Met Miss Jones - Sarah Vaughan
TTITLE13=Satin Doll - Nancy Wilson
TTITLE14=Let's Do It - Trudy Richards
EXTD=YEAR: 2005
EXTT0=
EXTT1=
EXTT2=
EXTT3=
EXTT4=
EXTT5=
EXTT6=
EXTT7=
EXTT8=
EXTT9=
EXTT10=
EXTT11=
EXTT12=
EXTT13=
EXTT14=
PLAYORDER=
